<?xml version="1.0" encoding="UTF-8" standalone="no"?>
<!DOCTYPE svg PUBLIC "-//W3C//DTD SVG 1.1//EN" "http://www.w3.org/Graphics/SVG/1.1/DTD/svg11.dtd">
<svg width="100%" height="100%" viewBox="0 0 100 100" version="1.1" xmlns="http://www.w3.org/2000/svg" xmlns:xlink="http://www.w3.org/1999/xlink" xml:space="preserve" xmlns:serif="http://www.serif.com/" style="fill-rule:evenodd;clip-rule:evenodd;stroke-linejoin:round;stroke-miterlimit:2;">
    <g transform="matrix(1,0,0,1,-206.689829,-215.034752)">
        <g id="Arrière-plan" transform="matrix(0.104245,0,0,0.142834,206.504061,214.765375)">
            <path d="M739.988,200.008C754.721,218.587 740.598,219.822 738.781,225.576C738.515,226.419 738.718,237.555 744.456,237.913C754.798,238.558 761.326,235.912 760.885,253.518C760.483,269.567 741.895,255.451 739.197,267.422C736.75,278.282 750.853,274.124 749.431,284.493C749.183,286.305 745.572,300.193 737.5,300.514C728.638,300.866 726.109,290.336 719.546,296.551C713.052,302.699 711.641,303.295 714.125,307.727C718.097,314.812 716.485,317.021 710.167,323.166C701.82,331.283 693.953,323.991 692.942,323.055C692.579,322.718 688.946,319.35 687.617,319.896C685.329,320.837 686.073,322.043 686.028,367.498C685.976,420.045 686.181,420.2 684.065,425.319C677.247,441.819 658.253,439.244 645.499,439.259C620.696,439.289 339.487,439.626 335.465,438.642C312.379,432.998 315.295,420.454 315.263,384.5C315.15,255.658 314.504,255.658 315.666,244.52C317.037,231.378 329.475,225.156 335.487,225.07C355.787,224.779 581.305,225.238 582.606,224.87C585.255,224.121 587.374,210.362 606.448,211.969C607.079,212.022 615.94,216.1 617.742,209.574C619.613,202.799 607.373,199.297 620.869,187.942C635.788,175.391 637.926,196.191 647.213,191.028C656.16,186.056 642.599,173.307 654.61,168.81C655.463,168.491 669.056,166.595 673.248,169.834C680.328,175.302 672.838,187.824 684.501,187.607C694.084,187.429 687.537,165.868 705.721,174.045C716.446,178.868 720.078,180.325 714.517,192.508C714,193.64 709.73,198.562 718.567,203.36C723.983,206.3 730.579,192.609 739.988,200.008L560.108,338.527C558.654,330.295 557.131,330.958 550.58,326.373C543.482,321.404 553.55,321.537 556.645,314.572C561.554,303.524 559.139,301.174 558.6,299.463C555.379,289.244 541.466,286.244 539.499,286.181C535.956,286.068 505.194,286.123 504.461,286.159C500.223,286.363 501.254,295.835 501.255,301.5C501.258,360.583 500.935,361.534 503.429,362.643C504.339,363.048 536.324,363.468 540.471,362.425C543.414,362.082 548.045,362.099 553.567,357.603C560.277,352.141 559.947,346.101 560.256,342.436C560.207,341.133 560.157,339.83 560.108,338.527L739.988,200.008L681.469,205.606C670.943,203.256 669.722,203.546 659.455,205.139C655.964,205.681 651.394,207.663 648.633,207.993C646.908,208.824 646.904,208.794 646.77,208.891C640.338,213.518 640.279,213.346 639.812,213.844C638.909,214.809 639.304,214.987 639.214,215.045C638.467,215.527 631.873,219.783 631.884,223.383C632.755,223.484 633.627,223.585 634.498,223.687C645.558,223.002 647.403,223.394 648.499,223.627C655.135,222.749 668.343,223.004 671.471,223.55C671.669,223.602 671.595,224.023 671.794,224.075C672.685,224.31 673.634,224.207 674.542,224.358C676.42,224.67 676.028,225.379 680.323,227.843C682.242,228.944 681.941,229.948 683.567,231.455C688.555,236.079 687.759,245.315 687.776,262.5C687.794,280.987 687.004,280.982 687.314,282.557C688.189,286.991 686.636,287.034 687.601,291.468C688.225,297.433 686.797,301.201 689.546,298.605C691.255,296.992 693.056,297.024 693.388,297.03C695.38,297.066 695.064,295.198 697.365,295.066C698.084,295.025 698.03,294.972 698.483,294.467C698.992,293.898 699.094,294.1 699.607,293.616C701.748,291.595 702.446,292.607 704.485,290.475C707.206,287.631 707.448,287.996 710.214,285.22C710.971,284.461 715.127,280.289 718.046,274.356C718.735,273.036 718.754,273.072 718.776,271.545C718.782,271.121 719.105,271.2 720.156,266.428C720.409,265.277 720.937,265.534 721.149,264.389C722.065,259.429 722.302,246.605 721.571,245.469C720.389,243.632 721.969,243.201 720.73,241.36C719.192,239.073 720.365,238.611 718.764,236.309C718.539,235.986 719.308,235.776 717.165,231.665C713.586,224.798 710.127,221.41 709.355,220.654C708.308,219.629 708.73,219.18 707.346,218.654C707.185,218.593 706.479,217.83 706.399,217.604C705.828,215.989 704.061,216.422 703.387,215.677C703.196,215.465 703.456,215.028 703.249,214.831C702.667,214.277 702.414,214.833 701.885,214.218C701.091,213.295 701.438,212.868 701.368,212.658C698.829,212.668 699.175,211.64 696.744,211.034C694.937,210.583 690.099,206.077 681.469,205.606L739.988,200.008L577.479,295.34C574.719,296.2 574.917,296.489 572.981,298.604C573.284,302.641 572.32,303.055 573.805,304.227C576.465,306.328 576.462,306.232 579.444,307.732C586.807,311.435 586.798,311.421 587.436,311.744C590.675,313.384 590.138,314.444 593.652,315.179C595.597,315.586 595.781,317.209 601.359,318.924C603.122,320.443 603.184,320.263 605.351,320.941C606.901,322.258 606.678,322.651 608.696,323.029C609.896,323.253 609.902,324.329 609.903,324.48C609.91,325.655 609.913,326.093 597.439,332.257C593.259,334.322 593.046,333.68 592.689,333.863C592.478,333.972 592.693,334.388 592.524,334.556C592.449,334.631 591.905,335.172 591.356,335.178C590.078,335.191 590.184,335.512 585.345,338.181C574.851,343.97 572.804,342.396 571.372,348.502C573.978,358.048 580.405,353.462 581.337,353.212C581.961,353.045 581.768,352.828 588.35,349.216C590.309,348.141 592.633,347.346 593.51,346.517C594.966,345.139 597.572,345.045 598.851,343.788C599.501,343.15 600.202,343.089 600.333,343.078C602.182,342.917 601.68,341.974 603.382,341.255C611.5,337.822 614.757,335.359 615.645,334.688C616.596,333.969 617.024,334.737 619.255,333.15C622.062,331.154 622.35,331.847 625.338,330.174C626.778,329.368 626.693,329.305 627.332,329.193C629.417,328.826 629.96,326.904 630.458,326.477C630.998,326.013 631.211,326.12 631.057,325.387C630.536,322.902 632.389,322.169 630.16,320.816C627.842,319.409 628.37,318.325 625.674,318.129C625.234,318.097 624.592,317.547 624.511,317.478C621.055,314.517 619.909,316.494 616.568,313.428C615.306,312.271 615.199,312.611 613.533,312.171C610.383,310.352 593.537,302.441 593.533,302.437C593.136,302.121 593.112,302.157 583.554,297.28C580.634,295.79 580.744,295.355 577.479,295.34L739.988,200.008L374.7,330.114C378.46,331.89 379.199,332.003 379.618,332.067C381.732,332.391 381.247,333.482 383.411,333.853C385.676,334.241 385.217,335.275 387.415,335.844C387.687,335.914 389.737,336.445 390.597,337.343C390.777,337.531 390.522,337.959 390.733,338.111C391.137,338.404 391.259,338.155 396.333,340.854C403.954,344.909 403.924,344.978 404.663,345.091C405.916,345.283 405.472,346.01 406.612,346.349C413.392,348.366 413.06,349.691 415.674,351.026C416.816,351.369 416.659,351.544 417.7,352.006C423.396,354.536 423.152,354.886 423.661,355.053C423.943,355.145 424.153,354.663 424.45,354.635C424.794,354.602 425.114,354.833 425.456,354.883C432.088,355.844 431.863,350.169 431.836,349.502C431.64,344.563 430.468,344.854 429.429,344.983C427.89,345.173 418.431,339.895 418.275,339.761C414.065,336.141 412.594,337.807 410.391,335.62C407.483,332.732 402.962,333.429 401.174,330.846C399.589,328.555 398.411,330.576 396.295,328.73C390.835,323.964 396.994,322.461 403.232,319.06C413.781,313.31 413.537,312.905 414.48,312.458C416.403,311.547 416.926,312.202 417.216,312.098C417.364,312.046 417.011,311.702 418.598,310.7C421.495,308.872 424.821,307.533 425.384,307.306C433.194,304.161 430.824,293.138 419.653,298.792C417.008,300.13 416.604,299.397 414.498,301.497C414.293,301.701 412.968,303.022 411.545,303.593C408.482,304.823 408.871,305.959 405.574,305.968C403.36,305.975 403.665,306.715 401.778,307.878C400.019,308.962 377.553,320.955 375.595,320.957C374.546,320.958 374.554,320.977 373.89,321.802C370.086,326.528 374.173,329.704 374.7,330.114L739.988,200.008L469.011,323.411C469.064,320.246 468.593,320.031 470.563,317.536C470.688,317.378 475.053,306.577 475.08,306.409C475.506,303.719 476.653,304.178 477.11,301.428C477.564,298.694 478.5,299.062 479.155,296.403C479.533,294.867 481.138,294.719 481.271,294.369C481.356,294.148 480.337,294.175 481.25,291.401C481.92,289.365 486.929,279.961 482.392,277.664C478.87,275.88 478.423,274.842 475.431,277.396C472.433,279.954 473.677,283.094 468.966,291.687C465.259,298.448 465.635,301.106 461,310.766C460.037,312.772 460.21,312.829 450.672,336.586C450.044,338.149 449.143,337.764 449.231,339.452C449.286,340.486 449.115,340.444 444.679,351.569C443.99,353.297 443.116,354.271 443.133,355.437C443.184,359.138 435.626,365.762 439.787,371.328C440.201,371.674 442.874,373.907 446.305,373.034C446.392,373.012 446.348,373.03 449.529,369.516C449.712,369.314 456.96,351.144 457.598,349.544C467.034,325.889 467.588,325.195 469.011,323.411L739.988,200.008L605.353,220.864C605.31,220.915 605.187,223.179 602.535,223.09C600.95,223.037 601.025,223.066 599.431,223.19C598.304,223.082 598.326,223.046 597.469,222.357C592.096,224.314 597.286,225.148 597.509,225.146C612.067,225.029 612.363,226.043 613.192,225.101C614.872,223.193 606.046,221.034 605.353,220.864L739.988,200.008L648.499,223.627L647.504,224.445C650.633,224.111 650.523,224.606 653.5,225.341C660.499,224.782 660.469,225.21 667.488,224.783C669.19,224.68 669.105,224.445 671.471,223.55C668.343,223.004 655.135,222.749 648.499,223.627L739.988,200.008L605.353,220.864C605.126,220.841 602.512,220.567 602.512,220.567C598.818,221.035 597.775,222.058 597.469,222.357L599.431,223.19C601.025,223.066 600.95,223.037 602.535,223.09C605.187,223.179 605.31,220.915 605.353,220.864L739.988,200.008L634.498,223.687L633.507,224.196C636.12,224.13 636.118,223.969 638.481,224.954L639.518,224.96C641.953,223.956 642.034,223.972 644.503,224.837C646.06,224.897 646.004,224.793 647.504,224.445L648.499,223.627C647.403,223.394 645.558,223.002 634.498,223.687L739.988,200.008L601.359,318.924C600.372,319.196 599.385,319.468 598.399,319.74C601.846,321.269 602.122,321.511 602.392,321.746C604.473,321.133 604.459,321.135 604.639,321.084C605.055,320.966 605.001,321.039 605.351,320.941C603.184,320.263 603.122,320.443 601.359,318.924L739.988,200.008Z" style="fill-opacity:1;"/>
            <path d="M415.886,478.94C416.634,478.362 421.532,474.574 426.564,473.904C428.775,473.61 455.819,473.873 456.552,473.697C460.64,472.717 453.428,452.497 462.54,451.876C466.126,451.632 538.045,451.749 538.494,451.756C549.893,451.947 543.596,467.201 545.3,472.572C546.489,476.32 571.74,470.751 583.331,475.847C594.602,480.802 601.714,501.022 588.5,501.028C428.364,501.105 428.392,501.197 414.473,500.939C407.667,500.812 404.203,490.496 415.886,478.94Z" style="fill-opacity:1;"/>
            <path d="M544.446,364.33C541.345,365.101 537.373,366.09 504.511,365.298C498.179,365.145 499.284,361.888 499.212,323.506C499.143,286.833 498.751,284.98 503.392,284.001C505.243,283.611 538.697,283.805 539.436,283.915C571.273,288.642 562.675,318.97 551.534,322.543C548.042,323.663 552.279,323.92 555.876,327.012C570.032,339.18 562.267,360.527 544.446,364.33L560.108,338.527C558.654,330.295 557.131,330.958 550.58,326.373C543.482,321.404 553.55,321.537 556.645,314.572C561.554,303.524 559.139,301.174 558.6,299.463C555.379,289.244 541.466,286.244 539.499,286.181C535.956,286.068 505.194,286.123 504.461,286.159C500.223,286.363 501.254,295.835 501.255,301.5C501.258,360.583 500.935,361.534 503.429,362.643C504.339,363.048 536.324,363.468 540.471,362.425C543.414,362.082 548.045,362.099 553.567,357.603C560.277,352.141 559.947,346.101 560.256,342.436C560.207,341.133 560.157,339.83 560.108,338.527L544.446,364.33Z" style="fill:rgb(237,234,230);fill-opacity:0.9;"/>
            <path d="M537.469,296.957C553.663,301.783 547.424,318.649 537.499,319.13C535.651,319.22 517.253,320.112 514.377,318.721C511.172,317.172 511.502,300.878 513.133,299.104C514.578,297.535 514.3,296.964 516.511,296.893C520.833,296.754 535.792,296.937 537.469,296.957Z" style="fill:rgb(231,229,224);fill-opacity:0.96;"/>
            <path d="M543.421,334.575C546.636,338.2 548.573,345.624 539.487,349.466L538.549,349.721C536.805,349.91 532.321,350.397 516.625,350.048C514.3,349.997 515.656,347.469 514.49,339.502C514.49,338.834 514.489,338.166 514.489,337.497C515.452,332.728 514.518,331.371 517.497,331.351C537.709,331.213 539.465,331.22 543.421,334.575Z" style="fill-opacity:1;"/>
            <path d="M515.974,317.108C515.454,316.148 514.803,314.947 514.929,303.502C514.963,300.42 514.382,299.231 517.488,299.203C528.502,299.105 528.469,298.508 539.344,299.973C541.474,300.26 541.182,300.789 542.657,302.347C545.416,305.261 545.108,305.562 544.844,309.555C544.241,318.661 532.696,317.104 515.974,317.108Z" style="fill-opacity:1;"/>
            <path d="M370.69,323.549C372.385,319.262 374.384,319.6 379.319,317.156C392.575,310.591 392.531,310.645 405.644,303.769C406.976,303.07 417.202,297.708 422.385,295.214C428.429,292.306 438.18,302.351 427.632,308.721C426.102,309.645 425.801,309.007 407.778,318.968C406.961,319.419 397.94,324.404 397.522,324.535C392.915,325.977 405.968,330.745 407.412,331.66C407.867,331.948 407.842,331.839 413.379,334.77C421.076,338.844 420.978,339.001 421.722,339.111C422.869,339.282 427.172,341.835 427.627,342.105C431.341,344.309 433.439,343.507 434.131,349.515C434.566,353.293 429.58,359.958 422.565,356.374C420.961,355.554 420.972,355.664 419.353,354.845C417.307,353.81 417.658,353.166 415.333,352.773C414.228,352.586 414.336,352.438 413.37,351.791C414.138,351.536 414.906,351.281 415.674,351.026C416.816,351.369 416.659,351.544 417.7,352.006C423.396,354.536 423.152,354.886 423.661,355.053C423.943,355.145 424.153,354.663 424.45,354.635C424.794,354.602 425.114,354.833 425.456,354.883C432.088,355.844 431.863,350.169 431.836,349.502C431.64,344.563 430.468,344.854 429.429,344.983C427.89,345.173 418.431,339.895 418.275,339.761C414.065,336.141 412.594,337.807 410.391,335.62C407.483,332.732 402.962,333.429 401.174,330.846C399.589,328.555 398.411,330.576 396.295,328.73C390.835,323.964 396.994,322.461 403.232,319.06C413.781,313.31 413.537,312.905 414.48,312.458C416.403,311.547 416.926,312.202 417.216,312.098C417.364,312.046 417.011,311.702 418.598,310.7C421.495,308.872 424.821,307.533 425.384,307.306C433.194,304.161 430.824,293.138 419.653,298.792C417.008,300.13 416.604,299.397 414.498,301.497C414.293,301.701 412.968,303.022 411.545,303.593C408.482,304.823 408.871,305.959 405.574,305.968C403.36,305.975 403.665,306.715 401.778,307.878C400.019,308.962 377.553,320.955 375.595,320.957C374.546,320.958 374.554,320.977 373.89,321.802C370.086,326.528 374.173,329.704 374.7,330.114C374.185,329.987 374.233,330.347 373.68,330.21C373.502,330.166 373.518,330.157 371.505,329.496C371.068,328.596 371.194,328.6 371.038,327.625C371.736,324.277 371.03,324.388 370.69,323.549Z" style="fill:rgb(239,237,234);fill-opacity:0.78;"/>
            <path d="M486.662,280.46C486.255,281.23 485.792,280.722 485.383,281.497C485.344,281.569 485.2,281.843 485.583,282.5C485.82,282.907 486.324,283.112 486.561,283.518C479.288,305 477.245,304.141 469.809,325.563C469.543,324.846 469.277,324.128 469.011,323.411C469.064,320.246 468.593,320.031 470.563,317.536C470.688,317.378 475.053,306.577 475.08,306.409C475.506,303.719 476.653,304.178 477.11,301.428C477.564,298.694 478.5,299.062 479.155,296.403C479.533,294.867 481.138,294.719 481.271,294.369C481.356,294.148 480.337,294.175 481.25,291.401C481.92,289.365 486.929,279.961 482.392,277.664C478.87,275.88 478.423,274.842 475.431,277.396C472.433,279.954 473.677,283.094 468.966,291.687C465.259,298.448 465.635,301.106 461,310.766C460.037,312.772 460.21,312.829 450.672,336.586C450.044,338.149 449.143,337.764 449.231,339.452C449.286,340.486 449.115,340.444 444.679,351.569C443.99,353.297 443.116,354.271 443.133,355.437C443.184,359.138 435.626,365.762 439.787,371.328C440.318,372.471 440.849,373.614 441.381,374.756C440.93,374.607 437.363,373.427 437.092,370.65C436.976,369.457 436.768,369.567 436.243,368.537C435.788,367.644 438.014,361.928 438.229,361.374C440.508,355.522 440.933,355.789 441.069,355.268C441.406,353.979 442.449,349.99 446.929,339.68C457.294,315.823 456.279,315.392 457.551,313.526C458.097,312.726 458.163,312.628 462.218,302.351C469.954,282.741 470.537,283.012 471.059,281.258C474.293,270.384 483.138,271.93 486.662,280.46Z" style="fill:rgb(234,232,229);fill-opacity:0.79;"/>
            <path d="M671.471,223.55C671.669,223.602 671.595,224.023 671.794,224.075C672.685,224.31 673.634,224.207 674.542,224.358C676.42,224.67 676.028,225.379 680.323,227.843C682.242,228.944 681.941,229.948 683.567,231.455C688.555,236.079 687.759,245.315 687.776,262.5C687.794,280.987 687.004,280.982 687.314,282.557C688.189,286.991 686.636,287.034 687.601,291.468C687.089,293.324 686.237,293.199 686.618,297.503C686.658,297.952 686.291,300.718 686.254,300.997C684.872,300.266 684.898,299.885 684.864,281.5C684.797,245.581 685.009,245.608 684.881,242.49C684.825,241.121 684.411,231.039 676.471,227.565C673.514,226.272 673.696,225.957 673.424,225.899C673.09,225.828 672.864,226.379 672.522,226.385C671.816,226.398 671.141,226.082 670.446,225.954C667.075,225.333 665.695,225.363 653.5,225.341C660.499,224.782 660.469,225.21 667.488,224.783C669.19,224.68 669.105,224.445 671.471,223.55Z" style="fill:rgb(241,240,237);fill-opacity:0.91;"/>
            <path d="M616.577,311.274C618.55,313.084 618.649,312.824 619.346,312.84C619.537,312.845 627.792,317.088 628.58,317.336C634.3,319.132 634.162,328.774 628.554,330.605C628.135,330.742 617.98,335.784 617.353,336.25C617.01,336.506 616.783,336.081 612.643,338.801C612.192,339.097 611.932,338.536 606.624,341.832C606.078,342.171 600.918,345.376 599.559,345.651C597.988,345.969 594.869,348.175 589.613,350.744C588.782,351.15 583.125,353.914 579.417,356.184C579.097,356.003 578.829,355.74 578.509,355.56C577.654,355.077 577.581,355.087 577.493,355.098C576.344,355.243 576.574,355.804 575.45,355.946C574.806,355.788 574.162,355.63 573.518,355.472C573.302,355.064 573.61,355.055 573.391,354.644C572.573,353.101 571.658,353.67 571.443,353.55C570.727,352.372 570.156,350.801 570.065,350.553C570.501,349.869 570.937,349.185 571.372,348.502C573.978,358.048 580.405,353.462 581.337,353.212C581.961,353.045 581.768,352.828 588.35,349.216C590.309,348.141 592.633,347.346 593.51,346.517C594.966,345.139 597.572,345.045 598.851,343.788C599.501,343.15 600.202,343.089 600.333,343.078C602.182,342.917 601.68,341.974 603.382,341.255C611.5,337.822 614.757,335.359 615.645,334.688C616.596,333.969 617.024,334.737 619.255,333.15C622.062,331.154 622.35,331.847 625.338,330.174C626.778,329.368 626.693,329.305 627.332,329.193C629.417,328.826 629.96,326.904 630.458,326.477C630.998,326.013 631.211,326.12 631.057,325.387C630.536,322.902 632.389,322.169 630.16,320.816C627.842,319.409 628.37,318.325 625.674,318.129C625.234,318.097 624.592,317.547 624.511,317.478C621.055,314.517 619.909,316.494 616.568,313.428C615.306,312.271 615.199,312.611 613.533,312.171C615.349,311.558 615.336,311.557 615.495,311.509C616.065,311.337 616.037,311.438 616.577,311.274Z" style="fill:rgb(248,248,246);fill-opacity:0.6;"/>
            <path d="M700.752,211.135C702.88,211.965 702.724,212.106 704.437,213.591C710.093,218.495 710.33,218.192 714.784,224.274C716.558,226.696 716.347,226.773 717.883,229.309C720.688,233.94 720.184,234.153 720.487,234.506C721.787,236.025 724.073,244.946 724.132,247.539C724.422,260.247 724.378,264.478 718.776,276.627L718.046,274.356C718.735,273.036 718.754,273.072 718.776,271.545C718.782,271.121 719.105,271.2 720.156,266.428C720.409,265.277 720.937,265.534 721.149,264.389C722.065,259.429 722.302,246.605 721.571,245.469C720.389,243.632 721.969,243.201 720.73,241.36C719.192,239.073 720.365,238.611 718.764,236.309C718.539,235.986 719.308,235.776 717.165,231.665C713.586,224.798 710.127,221.41 709.355,220.654C708.308,219.629 708.73,219.18 707.346,218.654C707.185,218.593 706.479,217.83 706.399,217.604C705.828,215.989 704.061,216.422 703.387,215.677C703.196,215.465 703.456,215.028 703.249,214.831C702.667,214.277 702.414,214.833 701.885,214.218C701.091,213.295 701.438,212.868 701.368,212.658L700.752,211.135Z" style="fill:rgb(241,239,237);fill-opacity:0.77;"/>
            <path d="M469.011,323.411C469.277,324.128 469.543,324.846 469.809,325.563C465.381,334.97 465.911,335.133 461.859,344.673C452.855,365.872 452.721,376.752 441.381,374.756C440.849,373.614 440.318,372.471 439.787,371.328C440.201,371.674 442.874,373.907 446.305,373.034C446.392,373.012 446.348,373.03 449.529,369.516C449.712,369.314 456.96,351.144 457.598,349.544C467.034,325.889 467.588,325.195 469.011,323.411Z" style="fill:rgb(239,237,234);fill-opacity:0.72;"/>
            <path d="M542.767,331.23C546.492,334.857 546.993,334.531 548.298,338.571C546.616,342.259 548.353,342.066 548.641,342.549C546.738,346.299 546.859,346.347 546.601,346.601C546.063,347.129 545.935,346.923 545.591,347.591C545.251,348.251 543.335,351.972 537.502,352.154C517.42,352.78 516.959,352.597 515.309,351.941C513.846,351.36 514.806,350.417 513.431,349.558C512.238,348.813 512.184,343.073 512.179,342.5C514.283,339.787 514.271,339.814 514.49,339.502C515.656,347.469 514.3,349.997 516.625,350.048C532.321,350.397 536.805,349.91 538.549,349.721C538.861,349.636 539.174,349.551 539.487,349.466C548.573,345.624 546.636,338.2 543.421,334.575C543.3,334.111 543.322,334.151 542.767,331.23Z" style="fill:rgb(229,226,222);fill-opacity:0.92;"/>
            <path d="M605.351,320.941C606.901,322.258 606.678,322.651 608.696,323.029C609.896,323.253 609.902,324.329 609.903,324.48C609.91,325.655 609.913,326.093 597.439,332.257C593.259,334.322 593.046,333.68 592.689,333.863C592.478,333.972 592.693,334.388 592.524,334.556C592.449,334.631 591.905,335.172 591.356,335.178C590.078,335.191 590.184,335.512 585.345,338.181C574.851,343.97 572.804,342.396 571.372,348.502C570.937,349.185 570.501,349.869 570.065,350.553C567.726,343.32 574.357,342.147 577.348,340.153C578.093,339.657 578.274,340.134 587.374,335.209C591.059,333.214 591.014,333.325 591.324,333.15C591.918,332.814 591.733,332.545 593.332,332.208C595.807,331.687 595.156,330.225 597.693,329.923C598.697,329.804 599.503,328.891 602.49,327.481C603.93,326.8 603.854,326.85 605.358,326.229C605.9,326.005 605.895,326.449 606.392,326.208C606.601,326.107 606.356,325.69 606.517,325.523C606.701,325.331 607.093,325.476 607.278,325.285C607.614,324.939 607.879,324.255 602.392,321.746C604.473,321.133 604.459,321.135 604.639,321.084C605.055,320.966 605.001,321.039 605.351,320.941Z" style="fill:rgb(243,242,242);fill-opacity:0.87;"/>
            <path d="M371.505,329.496C373.518,330.157 373.502,330.166 373.68,330.21C374.233,330.347 374.185,329.987 374.7,330.114C378.46,331.89 379.199,332.003 379.618,332.067C381.732,332.391 381.247,333.482 383.411,333.853C385.676,334.241 385.217,335.275 387.415,335.844C387.687,335.914 389.737,336.445 390.597,337.343C390.777,337.531 390.522,337.959 390.733,338.111C391.137,338.404 391.259,338.155 396.333,340.854C403.954,344.909 403.924,344.978 404.663,345.091C405.916,345.283 405.472,346.01 406.612,346.349C413.392,348.366 413.06,349.691 415.674,351.026C414.906,351.281 414.138,351.536 413.37,351.791C412.58,351.176 412.314,351.686 402.326,345.919C400.241,344.715 399.913,345.435 392.312,340.887C388.82,338.798 379.877,334.623 379.562,334.384C376.41,331.996 374.778,333.831 371.505,329.496Z" style="fill:rgb(243,242,239);fill-opacity:0.74;"/>
            <path d="M718.046,274.356L718.776,276.627C718.017,277.501 717.716,278.431 717.66,278.604C717.208,280.002 712.79,285.24 711.002,287.043C704.136,293.964 703.28,292.872 700.508,295.513C699.765,296.221 698.735,296.549 698.565,296.604C696.723,297.191 695.735,298.326 694.568,298.631C690.306,299.746 690.635,301.048 686.254,300.997C686.291,300.718 686.658,297.952 686.618,297.503C686.237,293.199 687.089,293.324 687.601,291.468C688.225,297.433 686.797,301.201 689.546,298.605C691.255,296.992 693.056,297.024 693.388,297.03C695.38,297.066 695.064,295.198 697.365,295.066C698.084,295.025 698.03,294.972 698.483,294.467C698.992,293.898 699.094,294.1 699.607,293.616C701.748,291.595 702.446,292.607 704.485,290.475C707.206,287.631 707.448,287.996 710.214,285.22C710.971,284.461 715.127,280.289 718.046,274.356Z" style="fill:rgb(240,240,238);fill-opacity:0.89;"/>
            <path d="M542.767,331.23C543.322,334.151 543.3,334.111 543.421,334.575C539.465,331.22 537.709,331.213 517.497,331.351C514.518,331.371 515.452,332.728 514.489,337.497C514.312,337.251 514.28,337.346 512.173,334.497C512.962,327.982 516.522,328.932 518.501,328.926C533.304,328.876 533.299,328.851 534.571,329.033C541.013,329.956 542.218,330.831 542.767,331.23Z" style="fill:rgb(237,234,230);fill-opacity:0.93;"/>
            <path d="M575.386,294.092C579.218,291.935 580.346,293.945 583.625,295.289C584.187,295.519 584.113,295.663 590.497,298.507C591.668,299.028 593.568,300.728 595.274,300.92C595.702,300.968 596.366,301.524 596.449,301.594C596.498,301.635 600.756,303.866 601.646,304.228C603.402,304.941 603.432,304.883 603.652,305.138C604.344,305.939 609.184,307.946 609.682,308.153C610.236,308.383 610.902,308.346 611.401,308.678C611.606,308.814 611.346,309.272 611.556,309.401C611.922,309.625 611.928,309.39 616.577,311.274C616.037,311.438 616.065,311.337 615.495,311.509C615.336,311.557 615.349,311.558 613.533,312.171C610.383,310.352 593.537,302.441 593.533,302.437C593.136,302.121 593.112,302.157 583.554,297.28C580.634,295.79 580.744,295.355 577.479,295.34C576.782,294.924 576.084,294.508 575.386,294.092Z" style="fill:rgb(246,245,243);fill-opacity:0.62;"/>
            <path d="M684.467,203.639C684.06,203.873 684.103,203.859 681.469,205.606C670.943,203.256 669.722,203.546 659.455,205.139C655.964,205.681 651.394,207.663 648.633,207.993L646.392,207.234C661.43,198.861 681.471,203.018 684.467,203.639Z" style="fill:rgb(229,227,223);fill-opacity:0.89;"/>
            <path d="M572.304,296.356C572.53,297.106 572.756,297.855 572.981,298.604C573.284,302.641 572.32,303.055 573.805,304.227C576.465,306.328 576.462,306.232 579.444,307.732C586.807,311.435 586.798,311.421 587.436,311.744C590.675,313.384 590.138,314.444 593.652,315.179C595.597,315.586 595.781,317.209 601.359,318.924C600.372,319.196 599.385,319.468 598.399,319.74C598.053,319.44 591.367,315.948 590.427,315.643C588.86,315.133 589.327,314.2 587.7,314.092C586.489,314.011 586.632,312.729 582.486,311.528C582.209,311.448 582.445,311.05 579.362,309.737C578.737,309.471 578.779,309.462 573.481,306.524C572.546,306.006 568.867,301.329 572.304,296.356Z" style="fill:rgb(245,244,243);fill-opacity:0.57;"/>
            <path d="M646.392,207.234L648.633,207.993C646.908,208.824 646.904,208.794 646.77,208.891C640.338,213.518 640.279,213.346 639.812,213.844C638.909,214.809 639.304,214.987 639.214,215.045C638.467,215.527 631.873,219.783 631.884,223.383L632.493,224.558L631.499,225.428C630.898,225.208 630.188,225.477 629.587,225.257C629.461,225.211 628.578,224.888 628.963,223.698C630.035,220.383 638.334,213.002 639.257,212.181C640.123,211.411 640.369,211.923 641.295,211.202C641.504,211.039 641.268,210.616 641.448,210.422C641.645,210.211 642.665,209.111 644.458,208.436C644.628,208.372 645.47,208.054 646.392,207.234Z" style="fill:rgb(250,250,249);fill-opacity:0.73;"/>
            <path d="M684.467,203.639C692.797,205.675 692.17,207.046 692.646,207.209C693.198,207.398 693.142,206.883 693.657,207.116C696.828,208.555 697.508,208.352 700.752,211.135L701.368,212.658C698.829,212.668 699.175,211.64 696.744,211.034C694.937,210.583 690.099,206.077 681.469,205.606C684.103,203.859 684.06,203.873 684.467,203.639Z" style="fill:rgb(242,241,238);fill-opacity:0.84;"/>
            <path d="M512.173,334.497C514.28,337.346 514.312,337.251 514.489,337.497C514.489,338.166 514.49,338.834 514.49,339.502C514.271,339.814 514.283,339.787 512.179,342.5C512.163,342.258 511.889,338.89 512.173,334.497Z" style="fill:rgb(217,214,209);fill-opacity:0.58;"/>
            <path d="M575.386,294.092C576.084,294.508 576.782,294.924 577.479,295.34C574.719,296.2 574.917,296.489 572.981,298.604C572.756,297.855 572.53,297.106 572.304,296.356C573.705,295.021 573.611,294.96 575.386,294.092Z" style="fill:rgb(187,186,186);fill-opacity:0.63;"/>
            <path d="M632.493,224.558L633.507,224.196C636.12,224.13 636.118,223.969 638.481,224.954L637.5,225.493C635.5,225.471 633.499,225.45 631.499,225.428L632.493,224.558Z" style="fill:rgb(171,171,170);fill-opacity:0.69;"/>
            <path d="M644.503,224.837C646.06,224.897 646.004,224.793 647.504,224.445C650.633,224.111 650.523,224.606 653.5,225.341C644.284,225.347 644.3,225.508 643.5,225.501L644.503,224.837Z" style="fill:rgb(147,146,145);fill-opacity:0.81;"/>
            <path d="M825.5,701.999L824.5,701.999C822.992,698.015 825.95,699.019 826.114,699.623C826.166,699.813 826.233,700.061 825.5,701.999Z" style="fill:none;"/>
            <path d="M643.5,701.999L642.5,701.999C640.985,698.003 643.953,699.036 644.113,699.623C644.165,699.813 644.232,700.061 643.5,701.999Z" style="fill:none;"/>
            <path d="M639.518,224.96C641.953,223.956 642.034,223.972 644.503,224.837L643.5,225.501C642.5,225.494 641.5,225.487 640.499,225.48L639.518,224.96Z" style="fill:rgb(178,176,176);fill-opacity:0.67;"/>
            <path d="M708.5,701.999L707.5,701.999C707.45,699.992 706.662,698.935 708.646,699.115C708.876,699.136 709.852,699.224 708.5,701.999Z" style="fill:none;"/>
            <path d="M676.695,46.303C678.268,49.52 674.641,47.886 674.736,46.525C674.832,45.167 675.476,45.714 676.695,46.303Z" style="fill:none;"/>
            <path d="M740.769,670.127L741.349,671.382C739.56,672.135 738.386,672.487 738.891,670.625C739.205,669.468 739.576,669.88 740.769,670.127Z" style="fill:none;"/>
            <path d="M378.377,519.114C375.187,518.245 377.987,516.397 378.795,517.205C379.7,518.11 379.232,518.258 378.377,519.114Z" style="fill:none;"/>
            <path d="M689.377,638.114C686.187,637.245 688.987,635.397 689.795,636.205C690.7,637.11 690.232,637.258 689.377,638.114Z" style="fill:none;"/>
            <path d="M808.377,1.886C810.798,4.307 807.207,4.554 806.886,3.377C806.531,2.072 807.101,2.233 808.377,1.886Z" style="fill:none;"/>
            <path d="M425.623,30.114C424.768,29.258 424.3,29.11 425.205,28.205C426.013,27.397 428.813,29.245 425.623,30.114Z" style="fill:none;"/>
            <path d="M595.377,59.114C592.187,58.245 594.987,56.397 595.795,57.205C596.7,58.11 596.232,58.258 595.377,59.114Z" style="fill:none;"/>
            <path d="M808.377,97.886C810.798,100.307 807.207,100.554 806.886,99.377C806.531,98.072 807.101,98.233 808.377,97.886Z" style="fill:none;"/>
            <path d="M3.377,307.886C5.798,310.307 2.207,310.554 1.886,309.377C1.531,308.072 2.101,308.233 3.377,307.886Z" style="fill:none;"/>
            <path d="M958.886,361.377C959.233,360.101 959.072,359.531 960.377,359.886C961.554,360.207 961.307,363.798 958.886,361.377Z" style="fill:none;"/>
            <path d="M806.886,403.377C807.233,402.101 807.072,401.531 808.377,401.886C809.554,402.207 809.307,405.798 806.886,403.377Z" style="fill:none;"/>
            <path d="M248.886,457.377C249.233,456.101 249.072,455.531 250.377,455.886C251.554,456.207 251.307,459.798 248.886,457.377Z" style="fill:none;"/>
            <path d="M707.623,507.886C708.899,508.233 709.469,508.072 709.114,509.377C708.793,510.554 705.202,510.307 707.623,507.886Z" style="fill:none;"/>
            <path d="M38.886,513.377C39.233,512.101 39.072,511.531 40.377,511.886C41.554,512.207 41.307,515.798 38.886,513.377Z" style="fill:none;"/>
            <path d="M4.114,572.377C1.693,574.798 1.446,571.207 2.623,570.886C3.928,570.531 3.767,571.101 4.114,572.377Z" style="fill:none;"/>
            <path d="M807.623,587.886C808.899,588.233 809.469,588.072 809.114,589.377C808.793,590.554 805.202,590.307 807.623,587.886Z" style="fill:none;"/>
            <path d="M393.623,691.886C394.899,692.233 395.469,692.072 395.114,693.377C394.793,694.554 391.202,694.307 393.623,691.886Z" style="fill:none;"/>
            <path d="M926.886,636.623C927.742,635.768 927.89,635.3 928.795,636.205C929.603,637.013 927.755,639.813 926.886,636.623Z" style="fill:none;"/>
            <path d="M625.623,685.114C624.768,684.259 624.299,684.11 625.205,683.205C626.012,682.398 628.814,684.245 625.623,685.114Z" style="fill:none;"/>
            <path d="M741.115,577.623C740.244,580.817 738.401,578.01 739.205,577.206C740.11,576.3 740.259,576.767 741.115,577.623Z" style="fill:none;"/>
            <path d="M708.377,488.114C705.186,487.245 707.988,485.4 708.795,486.205C709.651,487.06 709.247,487.243 708.377,488.114Z" style="fill:none;"/>
            <path d="M643.377,79.886C645.799,82.308 642.206,82.552 641.886,81.377C641.531,80.072 642.101,80.233 643.377,79.886Z" style="fill:none;"/>
            <path d="M824.623,145.886C825.899,146.233 826.469,146.072 826.114,147.377C825.794,148.552 822.201,148.308 824.623,145.886Z" style="fill:none;"/>
            <path d="M808.377,330.114C805.186,329.245 807.988,327.4 808.795,328.205C809.651,329.06 809.247,329.243 808.377,330.114Z" style="fill:none;"/>
            <path d="M808.377,527.114C805.186,526.245 807.988,524.4 808.795,525.205C809.651,526.06 809.247,526.243 808.377,527.114Z" style="fill:none;"/>
            <path d="M807.623,423.114C806.753,422.243 806.349,422.06 807.205,421.205C808.012,420.4 810.814,422.245 807.623,423.114Z" style="fill:none;"/>
            <path d="M50.623,269.114C49.753,268.243 49.349,268.06 50.205,267.205C51.012,266.4 53.814,268.245 50.623,269.114Z" style="fill:none;"/>
            <path d="M51.377,58.886C53.799,61.308 50.206,61.552 49.886,60.377C49.531,59.072 50.101,59.233 51.377,58.886Z" style="fill:none;"/>
            <path d="M806.886,388.623C807.743,387.768 807.892,387.304 808.795,388.205C809.603,389.011 807.755,391.814 806.886,388.623Z" style="fill:none;"/>
            <path d="M806.886,570.377C807.233,569.101 807.072,568.531 808.377,568.886C809.553,569.206 809.311,572.796 806.886,570.377Z" style="fill:none;"/>
            <path d="M4.114,631.623C3.245,634.814 1.397,632.011 2.205,631.205C3.108,630.304 3.257,630.768 4.114,631.623Z" style="fill:none;"/>
            <path d="M808.377,535.886C810.799,538.308 807.206,538.552 806.886,537.377C806.531,536.072 807.101,536.233 808.377,535.886Z" style="fill:none;"/>
            <path d="M806.886,674.377C807.233,673.101 807.072,672.531 808.377,672.886C809.553,673.206 809.311,676.796 806.886,674.377Z" style="fill:none;"/>
            <path d="M50.623,72.114C49.753,71.243 49.349,71.06 50.205,70.205C51.012,69.4 53.814,71.245 50.623,72.114Z" style="fill:none;"/>
            <path d="M741.123,440.621C740.209,443.921 738.435,440.989 739.206,440.212C740.108,439.305 740.26,439.766 741.123,440.621Z" style="fill:none;"/>
            <path d="M644.114,574.377C641.692,576.797 641.445,573.207 642.624,572.887C643.926,572.533 643.766,573.1 644.114,574.377Z" style="fill:none;"/>
            <path d="M49.886,361.377C50.234,360.1 50.074,359.532 51.376,359.887C52.554,360.207 52.31,363.796 49.886,361.377Z" style="fill:none;"/>
            <path d="M741.117,473.622C740.221,476.892 738.409,474.005 739.205,473.207C740.109,472.303 740.259,472.767 741.117,473.622Z" style="fill:none;"/>
            <path d="M641.886,596.377C642.234,595.1 642.074,594.533 643.376,594.887C644.554,595.207 644.31,598.796 641.886,596.377Z" style="fill:none;"/>
            <path d="M809.114,640.623C808.245,643.813 806.397,641.012 807.205,640.205C808.108,639.304 808.257,639.768 809.114,640.623Z" style="fill:none;"/>
            <path d="M806.886,214.377C807.234,213.1 807.075,212.533 808.376,212.887C809.554,213.207 809.31,216.796 806.886,214.377Z" style="fill:none;"/>
            <path d="M806.886,608.377C807.234,607.1 807.074,606.533 808.376,606.887C809.554,607.207 809.31,610.796 806.886,608.377Z" style="fill:none;"/>
            <path d="M644.114,9.623C643.245,12.813 641.397,10.012 642.205,9.205C643.108,8.304 643.257,8.768 644.114,9.623Z" style="fill:none;"/>
            <path d="M49.886,119.623C50.743,118.768 50.892,118.304 51.795,119.205C52.603,120.012 50.755,122.813 49.886,119.623Z" style="fill:none;"/>
            <path d="M644.114,135.623C643.245,138.813 641.397,136.011 642.205,135.205C643.108,134.304 643.257,134.768 644.114,135.623Z" style="fill:none;"/>
            <path d="M49.886,684.377C50.234,683.1 50.074,682.533 51.376,682.887C52.554,683.207 52.31,686.796 49.886,684.377Z" style="fill:none;"/>
            <path d="M644.114,677.623C643.245,680.812 641.397,678.012 642.205,677.205C643.108,676.304 643.257,676.768 644.114,677.623Z" style="fill:none;"/>
            <path d="M49.886,234.623C50.743,233.768 50.892,233.304 51.795,234.205C52.603,235.012 50.755,237.813 49.886,234.623Z" style="fill:none;"/>
            <path d="M806.886,202.623C807.743,201.768 807.892,201.304 808.795,202.205C809.603,203.012 807.755,205.813 806.886,202.623Z" style="fill:none;"/>
            <path d="M4.114,674.377C3.988,674.503 2.364,676.121 1.886,674.377C1.87,674.317 2.968,670.171 4.114,674.377Z" style="fill:none;"/>
            <path d="M742.114,434.623C741.245,437.813 739.396,435.005 740.206,434.207C741.085,433.34 741.261,433.773 742.114,434.623Z" style="fill:none;"/>
            <path d="M49.886,497.623C50.741,496.773 50.916,496.345 51.794,497.207C52.605,498.003 50.755,500.815 49.886,497.623Z" style="fill:none;"/>
            <path d="M49.886,350.377C50.234,349.1 50.074,348.533 51.376,348.887C52.546,349.205 52.324,352.781 49.886,350.377Z" style="fill:none;"/>
            <path d="M49.886,509.377C50.234,508.1 50.074,507.533 51.376,507.887C52.544,508.204 52.327,511.78 49.886,509.377Z" style="fill:none;"/>
            <path d="M52.114,583.377C51.988,583.502 50.381,585.107 49.891,583.38C49.869,583.306 50.97,579.176 52.114,583.377Z" style="fill:none;"/>
            <path d="M706.886,590.622C707.752,589.827 707.885,589.439 708.79,590.22C709.61,590.927 707.784,593.918 706.886,590.622Z" style="fill:none;"/>
            <path d="M707.671,644.902C708.926,645.259 709.451,645.137 709.114,646.376C708.789,647.57 705.105,647.255 707.671,644.902Z" style="fill:none;"/>
            <path d="M707.672,36.902L708.326,36.939C709.047,37.559 709.36,37.471 709.114,38.376C708.789,39.57 705.103,39.254 707.672,36.902Z" style="fill:none;"/>
            <path d="M51.32,381.943C52.248,382.73 52.675,382.916 51.795,383.795C50.903,384.685 48.199,382.685 51.32,381.943Z" style="fill:none;"/>
            <path d="M707.671,693.902L708.327,693.939C709.046,694.558 709.361,694.47 709.114,695.377C708.793,696.551 705.099,696.258 707.671,693.902Z" style="fill:none;"/>
            <path d="M548.298,338.571C548.903,340.507 548.883,340.491 548.641,342.549C548.353,342.066 546.616,342.259 548.298,338.571Z" style="fill:rgb(213,209,201);fill-opacity:0.13;"/>
            <path d="M708.564,546.435C708.527,546.854 708.938,547.232 708.9,547.65C708.71,549.777 705.223,546.301 707.351,546.106C707.768,546.068 708.147,546.474 708.564,546.435Z" style="fill:none;"/>
            <path d="M676.564,111.436C676.527,111.854 676.936,112.232 676.898,112.65C676.706,114.774 673.221,111.297 675.351,111.105C675.768,111.067 676.147,111.474 676.564,111.436Z" style="fill:none;"/>
            <path d="M50.437,343.436C50.852,343.474 51.231,343.076 51.646,343.114C53.784,343.307 50.291,346.766 50.101,344.65C50.063,344.232 50.474,343.854 50.437,343.436Z" style="fill:none;"/>
            <path d="M50.437,639.436C50.851,639.474 51.23,639.081 51.644,639.119C53.787,639.312 50.29,642.765 50.101,640.65C50.063,640.232 50.474,639.854 50.437,639.436Z" style="fill:none;"/>
            <path d="M50.435,540.435C50.853,540.473 51.232,540.065 51.65,540.103C53.775,540.296 50.295,543.756 50.101,541.65C50.063,541.232 50.473,540.853 50.435,540.435Z" style="fill:none;"/>
            <path d="M50.628,515.163C50.601,514.919 50.136,514.884 50.109,514.64C50.09,514.467 49.923,512.957 51.647,513.112C51.829,513.128 54.076,514.364 50.628,515.163Z" style="fill:none;"/>
            <path d="M642.662,693.793C646.072,695.364 642.097,696.148 641.75,695.402C641.281,694.397 641.812,694.499 642.662,693.793Z" style="fill:none;"/>
            <path d="M575.45,355.946C576.574,355.804 576.344,355.243 577.493,355.098C577.581,355.087 577.654,355.077 578.509,355.56C578.829,355.74 579.097,356.003 579.417,356.184C577.386,356.482 577.402,356.441 575.45,355.946Z" style="fill:rgb(147,147,147);fill-opacity:0.9;"/>
            <path d="M560.108,338.527C560.155,338.667 561.915,339.254 561.073,341.426C560.917,341.83 560.413,342.032 560.256,342.436C560.207,341.133 560.157,339.83 560.108,338.527Z" style="fill:rgb(160,157,152);fill-opacity:0.2;"/>
            <path d="M486.662,280.46C486.747,282.026 486.76,281.942 486.561,283.518C486.324,283.112 485.82,282.907 485.583,282.5C485.2,281.843 485.344,281.569 485.383,281.497C485.792,280.722 486.255,281.23 486.662,280.46Z" style="fill:rgb(195,193,192);fill-opacity:1;"/>
            <path d="M50.597,33.427C51.329,33.834 52.061,34.241 52.793,34.648L52.279,35.485L50.548,34.539L50.597,33.427Z" style="fill:none;"/>
            <path d="M50.596,241.428C51.329,241.835 52.061,242.241 52.793,242.647L52.279,243.485L50.549,242.541L50.596,241.428Z" style="fill:none;"/>
            <path d="M370.69,323.549C371.03,324.388 371.736,324.277 371.038,327.625C370.506,325.62 370.458,325.65 370.69,323.549Z" style="fill:rgb(155,154,154);fill-opacity:0.92;"/>
            <path d="M571.443,353.55C571.658,353.67 572.573,353.101 573.391,354.644C573.61,355.055 573.302,355.064 573.518,355.472C572.308,354.625 572.372,354.671 571.443,353.55Z" style="fill:rgb(137,136,136);fill-opacity:0.87;"/>
            <path d="M631.884,223.383C632.755,223.484 633.627,223.585 634.498,223.687L633.507,224.196L632.493,224.558L631.884,223.383Z" style="fill:rgb(95,95,95);fill-opacity:0.21;"/>
            <path d="M638.481,224.954L639.518,224.96L640.499,225.48C638.997,225.421 639.071,225.414 637.5,225.493L638.481,224.954Z" style="fill:rgb(118,117,115);fill-opacity:0.84;"/>
            <path d="M597.469,222.357L599.431,223.19C598.304,223.082 598.326,223.046 597.469,222.357Z" style="fill:rgb(101,101,100);fill-opacity:0.26;"/>
        </g>
    </g>
</svg>
